<svg viewBox="0 0 800 450" width="800" height="450" xmlns="http://www.w3.org/2000/svg" fill-rule="evenodd" clip-rule="evenodd" stroke-linejoin="round" stroke-miterlimit="2"><path fill="#002c5f" d="M0 0h800v450H0z"/><path d="M90.662 163.224h4.92c7.41 0 10.377 3.033 10.47 8.038.076 4.46-2.253 8.677-10.47 8.677h-4.92v-16.715zM83 156.642v53.28h7.662v-23.12h3.184c3.943 0 7.108 1.26 14.179 12.208l7.024 10.911h9.108c-3.662-5.052-4.977-6.854-7.268-10.535-4.047-6.64-7.024-11.55-11.86-14.752 5.69-2.282 8.902-6.883 8.902-13.062 0-9.202-6.714-14.93-17.494-14.93H83zm66.22 11.418l8.582 19.287h-16.583l8-19.287zm2.797-11.719h-5.39l-22.893 53.58h7.794l6.742-15.672h22.668l7.099 15.682h7.813l-23.833-53.6v.01zm37.843 7.184h11.775c14.949 0 21.729 9.07 21.729 19.775 0 6.573-3.982 19.767-21.316 19.767H189.86v-39.542zm-7.672 46.406h20.79c17.587 0 28.283-12.959 28.283-26.63 0-12.583-8.677-26.669-28.358-26.669h-20.715v53.299zm57.9-.01h7.634v-53.289h-7.635v53.29zm24.367-26.62c0-11.738 8.836-20.302 20.714-20.302 11.945 0 20.79 8.573 20.79 20.301 0 11.635-8.845 20.32-20.79 20.32-11.878 0-20.714-8.685-20.714-20.32m-7.897 0c0 14.461 11.033 27.335 28.442 27.335 18.048 0 28.828-12.958 28.828-27.325 0-14.846-11.08-27.354-28.659-27.354-17.287 0-28.611 12.583-28.611 27.344m363.651 108.597l-34.368-.01.104 43.515-61.534.075-.094-39.148s-.047-4.32-5.22-4.507l-87.986.075.01-36.124c.018-5.258 2.62-13.005 5.765-17.23l94.089-126.166c3.136-4.207 10.01-7.653 15.268-7.653l39.72.037-.084 136.486 34.368-.075-.038 50.725zM528.562 55.801c-93.244 0-168.872 75.647-168.872 168.966 0 93.32 75.628 168.957 168.872 168.957 93.272 0 168.872-75.638 168.872-168.957 0-93.319-75.59-168.966-168.872-168.966zm1.033 147.303c-13.278.282-23.973 11.418-23.71 24.696.31 11.606 8.976 21.128 20.301 23.156l8.695 1.559c-2.253 15.41-8.01 26.921-20.95 36.434 17.466-7.728 30.847-24.452 37.026-42.162 6.198-17.738 2.686-44.171-21.353-43.683m-291.113-63.543V76.056h67.487v63.505h-67.487zm42.519-54.65c-.282-.066-.601-.094-.902-.17l-.357-.037a36.268 36.268 0 00-4.516-.329h-.733c-.516.019-.995.066-1.483.075l-.827.066c-.403.038-.788.075-1.192.132l-.329.037-.375.056-.442.085a28.234 28.234 0 00-7.822 2.441l-1.559.836c-.469.282-.939.564-1.38.845-.253.188-.507.348-.77.535l-.61.442c-.423.328-.827.685-1.24 1.023-.347.32-.685.658-1.023.958a6.67 6.67 0 00-.827.883c-.29.3-.563.61-.817.939-.281.338-.525.676-.798 1.033-.216.281-.385.563-.582.845-.131.188-.235.375-.357.582-.713 1.146-1.314 2.366-1.85 3.672a23.943 23.943 0 00-1.314 5.286c-.15 1.07-.226 2.16-.216 3.24v1.08c.028.357.084.723.122 1.08l.019.262c.065.592.169 1.174.3 1.756l.235 1.033c.122.414.244.845.404 1.287.169.507.366 1.014.544 1.493.348.78.705 1.521 1.07 2.235l.705 1.202.563.882c.282.395.564.751.827 1.099.282.376.582.695.892 1.052.347.413.695.798 1.061 1.126l.169.188c.31.282.61.592.967.911.254.188.517.423.789.639.244.197.526.413.817.62.338.253.685.469 1.052.722.422.235.845.517 1.295.77.892.498 1.878.977 2.968 1.428.394.16.817.31 1.258.441.423.17.854.282 1.315.423.779.206 1.605.413 2.46.582.676.15 1.408.263 2.16.328.723.113 1.493.179 2.253.216.413.02.808.02 1.193.057h.554c1.418 0 2.732-.075 3.944-.16l.244-.037c.47-.02.939-.094 1.39-.141a23.437 23.437 0 001.99-.3c.395-.057.78-.16 1.146-.226l1.671-.404c.395-.094.78-.207 1.146-.32.432-.121.836-.28 1.24-.412l.384-.122a37.518 37.518 0 002.216-.883c.329-.132.695-.282 1.07-.47.301-.15.668-.328 1.034-.47.131-.102.281-.178.441-.234v-8.667l-.32.197-.59.348c-.602.375-1.175.713-1.738 1.033-.62.328-1.258.638-1.878.939a35.3 35.3 0 01-8.235 2.657l-.517.094-1.22.16c-.554.046-1.108.084-1.662.112l-.93.028c-2.695 0-5.371-.44-7.916-1.314a2.989 2.989 0 01-.544-.216c-.123-.038-.245-.094-.357-.141-.188-.094-.395-.16-.601-.254a19.961 19.961 0 01-1.259-.657c-.197-.113-.394-.253-.61-.347l-.61-.432a17.85 17.85 0 01-1.418-1.099l-.282-.253-.15-.141-.094-.066-.113-.094c-.375-.376-.732-.77-1.07-1.174-.17-.216-.338-.45-.517-.657a12.608 12.608 0 01-.807-1.268c-.179-.3-.348-.6-.507-.91l-.338-.77a14.598 14.598 0 01-.47-1.296c-.122-.31-.188-.658-.29-.958a19.753 19.753 0 01-.405-2.442c-.037-.262-.037-.516-.065-.76v-1.418c.047-1.09.187-2.17.432-3.23.075-.329.169-.658.262-.977.104-.32.207-.62.339-.958a5.24 5.24 0 01.262-.629c.123-.3.282-.582.414-.882.122-.235.234-.46.385-.677.281-.488.61-.976.967-1.474.131-.178.272-.338.394-.526l.582-.657c.122-.103.216-.216.329-.338a17.984 17.984 0 016.094-3.963l.874-.338c.31-.103.638-.187.967-.281.281-.094.62-.16.91-.254l.92-.178 1.006-.15.995-.104c.817-.066 1.643-.084 2.46-.066.441 0 .864.02 1.296.038.31.028.6.028.892.056.516.075 1.07.122 1.559.207l1.277.197c.62.16 1.183.282 1.709.432.31.066.61.15.901.254.413.122.78.225 1.061.328.47.179.742.263.742.263.413.15.845.329 1.258.488.564.235 1.08.442 1.578.677.413.197.808.394 1.202.563.3.169.582.329.864.45.47.245.873.47 1.192.649l.892.488v-8.517l-1.446-.563c-.403-.15-.892-.31-1.436-.517l-.958-.347c-.272-.075-.545-.188-.845-.263-.329-.113-.63-.235-.986-.338-.263-.057-.507-.16-.789-.235l-.216-.056-.751-.207c-.329-.075-.657-.178-.958-.253a7.355 7.355 0 01-.62-.141 19.48 19.48 0 00-2.084-.413zm-94.362 26.273h7.813l.873.01c.32.018.62.028.93.075.488.037 1.004.112 1.418.197.92.178 1.737.413 2.47.732a7.565 7.565 0 012.225 1.484l.328.329a5.16 5.16 0 011.09 3.126v.3l-.02.405a5.568 5.568 0 01-1.54 3.502 7.19 7.19 0 01-2.77 1.597 15.01 15.01 0 01-4.319.704c-.131 0-.272 0-.403.01h-8.095v-12.47zm0-18.996h5.409c.347 0 .76.028 1.249.047 1.033.066 2.31.263 3.427.751a5.054 5.054 0 012.376 2.16c.329.666.516 1.399.535 2.14l.01.517-.02.657a6.198 6.198 0 01-.431 1.785 4.98 4.98 0 01-1.07 1.633 6.683 6.683 0 01-2.376 1.4c-.216.075-.423.16-.667.206-.995.263-2.01.423-3.033.48-.291.027-.592.046-.883.055h-4.526V92.188zM160.75 139.56V76.056h67.478v63.505H160.75zm17.691-54.594v45.73h17.24s8.405.225 13.034-4.395c3.766-3.784 3.503-8.141 3.503-8.141s.263-4.564-3.221-8.057c-3.005-2.967-6.79-3.784-6.79-3.784s1.72-.78 3.052-2.122c.61-.601 2.799-2.592 2.799-7.409 0-4.845-3.212-7.644-3.212-7.644s-3.568-4.178-11.53-4.178H178.44zm-69.543 26.217h7.831l.864.01c.32.018.63.028.94.075a13.78 13.78 0 013.868.93 6.702 6.702 0 012.225 1.483 5.142 5.142 0 011.259 2.235c.131.516.15.976.178 1.22v.3l-.028.405a5.53 5.53 0 01-1.55 3.502 7.19 7.19 0 01-2.77 1.597 14.456 14.456 0 01-3.155.629l-1.126.075-.423.01h-8.113v-12.47zm0-18.996h5.409c.338 0 .78.028 1.22.047 1.09.066 2.339.263 3.437.751a5.478 5.478 0 011.568 1.033c.338.329.62.704.845 1.127.395.789.48 1.624.536 2.14v.517s0 .235-.047.657a6.138 6.138 0 01-.395 1.785 5.38 5.38 0 01-1.098 1.633 6.51 6.51 0 01-2.367 1.4c-.225.075-.432.16-.657.206-.995.263-2.019.423-3.042.48-.282.037-.61.046-.874.055h-4.535V92.188zM83 139.56V76.056h67.477v63.505H83zm17.7-54.594v45.73h17.222s8.395.225 13.033-4.395c3.756-3.784 3.503-8.141 3.503-8.141s.253-4.564-3.23-8.057c-2.977-2.967-6.78-3.784-6.78-3.784s1.718-.78 3.042-2.122c.61-.601 2.817-2.592 2.817-7.409 0-4.845-3.24-7.644-3.24-7.644s-3.53-4.178-11.493-4.178H100.7z" fill="#fff" fill-rule="nonzero"/></svg>
